<svg xmlns="http://www.w3.org/2000/svg" width="138" height="24" fill="none"><g clip-path="url(#a)"><path fill="#222831" d="M0 19.492V4.5h5.08c2.04 0 3.66.31 4.86.91 1.18.6 2.17 1.559 2.83 2.688.69 1.18 1.07 2.519 1.05 3.888a7.4 7.4 0 0 1-4.8 6.927c-.5.2-1.02.36-1.57.44-.46.08-1.38.11-2.7.11zM4.84 6.4H2.17v11.184h2.77c1.07 0 1.9-.08 2.5-.22.5-.13 1.02-.3 1.48-.57.41-.24.77-.5 1.09-.829 1.07-1.07 1.6-2.439 1.6-4.078s-.55-2.928-1.64-3.948c-.41-.39-.86-.69-1.38-.94-.46-.24-.96-.39-1.46-.47-.79-.089-1.51-.139-2.28-.129zm15.04 3.007c1.49 0 2.77.47 3.74 1.46.99.98 1.48 2.188 1.48 3.668.03 1.35-.53 2.658-1.51 3.538-1.01.96-2.28 1.42-3.82 1.42s-2.72-.47-3.71-1.45c-.98-.94-1.53-2.239-1.48-3.588-.03-1.37.5-2.679 1.49-3.618 1.02-.94 2.28-1.43 3.81-1.43m-.11 1.76c-.86-.03-1.7.3-2.31.939-.6.61-.9 1.42-.9 2.359s.3 1.719.94 2.329c.61.6 1.42.9 2.37.9s1.76-.3 2.36-.91c.6-.6.93-1.39.93-2.33a3.1 3.1 0 0 0-.96-2.328c-.68-.63-1.54-.98-2.44-.96zm8.38-1.6v1.27c.86-.98 1.86-1.46 2.99-1.46.6 0 1.2.17 1.71.47.52.3.96.77 1.21 1.31.27.57.42 1.449.42 2.638v5.667h-1.97v-5.617c0-1.01-.16-1.749-.46-2.169-.3-.43-.82-.65-1.56-.65-.94 0-1.71.46-2.36 1.4v7.066h-2V9.567zm16.4 4.838s-4.81.66-6.97.27c-.42-.08.42 1.679 1.04 2.218.6.54 1.38.79 2.3.76a5.98 5.98 0 0 0 3.52-1.35l.08 1.9c-.53.41-1.12.72-1.76.94-.66.22-1.37.33-2.06.35-1.09.05-1.98-.14-2.67-.58a4.8 4.8 0 0 1-1.68-1.76c-.44-.8-.69-1.699-.72-2.628-.06-1.5.3-2.739 1.12-3.708.8-.98 1.89-1.48 3.26-1.56 1.31-.05 2.37.36 3.19 1.26s1.26 2.109 1.31 3.648l.06.25zm-6.54-.88c.27-.22 4.67-.33 4.97-.2.31.13-.35-1.389-.77-1.789-.42-.41-1.01-.6-1.7-.58-.63 0-1.26.25-1.7.72-.46.44-1.1 2.06-.8 1.86zm23.38-1.219c0 1.53-.27 2.769-.83 3.678-.5.87-1.18 1.64-1.98 2.249-1.07.83-2.56 1.26-4.48 1.26h-8.04V4.56h6.18c.8-.02 1.6.05 2.39.14.6.08 1.21.22 1.79.41.46.16.94.36 1.35.6.36.2.68.44 1.01.709.5.42.96.91 1.34 1.46.41.599.71 1.269.93 1.978.22.8.35 1.62.35 2.439zm-4.59-.19c0-1.21-.24-2.169-.69-2.848-.39-.61-.98-1.1-1.67-1.37a5.5 5.5 0 0 0-1.98-.35h-2.08c.75 1.27.6 7.786 0 8.826h2.06a5.4 5.4 0 0 0 3.05-.83c.88-.52 1.31-1.679 1.31-3.428m16.83 2.029s-5.35 1.1-7.63.72c-.5-.08.6 1.179 1.2 1.569s1.31.58 2.03.5c1.29-.08 2.72-.5 4.26-1.31l.13 2.389c-.63.38-1.31.66-2.01.91-.79.27-1.81.46-3.05.54-1.35.08-2.48-.11-3.48-.57a5.07 5.07 0 0 1-2.23-1.92 6 6 0 0 1-.86-2.878c-.08-1.01.09-2.009.55-2.908.42-.9 1.15-1.64 2.01-2.11.93-.54 2.04-.829 3.4-.909.88-.05 1.79.08 2.61.42.88.36 1.64.98 2.15 1.779.6.83.93 1.969.99 3.338l-.06.42zm-2.94-1.48c.41.08-.25-1.259-.6-1.638-.38-.41-.88-.6-1.54-.55-.6.02-1.15.27-1.51.74-.38.44-.96 1.859-.49 1.699.49-.2 3.33-.42 4.14-.25m15.13 6.067c-.58.22-1.08.41-1.57.55-.57.16-1.15.22-1.73.2-.63 0-1.09-.11-1.34-.35-.25-.22-.44-.5-.55-.82-.42.35-.88.61-1.38.83s-1.18.33-2 .33-1.45-.14-1.92-.42c-.44-.24-.8-.6-1.02-1.04-.2-.41-.28-.85-.28-1.29-.02-.6.16-1.179.5-1.648.38-.46.83-.83 1.37-1.09.75-.35 1.49-.63 2.28-.87l1.23-.39c.27-.08.47-.16.61-.22s.28-.13.42-.19c0-.539-.09-.959-.33-1.238-.24-.28-.68-.44-1.4-.44-.82 0-1.64.19-2.36.57-.74.38-1.4.869-1.98 1.449V9.617a6.8 6.8 0 0 1 1.57-.85c.57-.22 1.15-.389 1.76-.489.6-.11 1.23-.16 1.84-.16 1.59 0 2.78.31 3.59.91.8.6 1.2 1.459 1.2 2.518v4.228c-.02.3.03.6.11.9.05.19.22.3.42.28.35-.03.68-.14.99-.3l-.03 2.059zm-5.41-2.12v-2.568c-.69.25-1.38.6-2 1.01-.41.25-.64.72-.63 1.209-.02.3.08.61.31.83.2.19.46.28.74.28s.55-.08.79-.22c.27-.16.55-.35.79-.55zM90 19.492h-3.87V4.56H90z"/><path fill="#F0292A" d="M137.88 12.45c0 2.45-.43 4.45-1.34 5.92a12.3 12.3 0 0 1-3.18 3.61c-1.38 1.07-3.19 1.72-5.44 1.93-.56.06-1.15.09-1.76.09H107.6c-3.08 0-5.48-.68-7.2-2.02-1.29-.99-2.37-2.23-3.18-3.62-.91-1.47-1.34-3.46-1.34-5.92 0-1.31.2-2.63.56-3.91.35-1.14.83-2.23 1.49-3.19.6-.89 1.34-1.67 2.14-2.35.53-.43 1.04-.81 1.62-1.14.66-.38 1.44-.71 2.17-.96.94-.3 1.92-.53 2.88-.66 1.16-.14 2.33-.23 3.51-.23h13.39c1.14 0 2.26.1 3.38.24.96.12 1.94.35 2.88.65.73.26 1.51.59 2.17.96.58.33 1.09.71 1.62 1.14.8.69 1.54 1.47 2.14 2.35.66.96 1.14 2.05 1.49 3.19.36 1.29.56 2.6.56 3.92"/><path fill="#fff" d="M110.42 14.45c.11 0 .21.04.29.13l.79.86c-.44.54-.98.96-1.62 1.25s-1.41.44-2.31.44c-.8 0-1.53-.14-2.17-.41a4.8 4.8 0 0 1-1.65-1.15c-.46-.49-.8-1.07-1.05-1.75-.24-.68-.36-1.42-.36-2.23s.13-1.56.39-2.24.63-1.26 1.1-1.75 1.04-.87 1.69-1.14a5.6 5.6 0 0 1 2.17-.41q1.185 0 2.1.39t1.56 1.02l-.67.94c-.04.06-.09.11-.15.16s-.15.07-.26.07c-.08 0-.15-.02-.23-.06s-.17-.09-.26-.16q-.15-.09-.33-.21c-.12-.07-.27-.14-.44-.21-.16-.06-.36-.12-.57-.16a4 4 0 0 0-.75-.06c-.49 0-.93.09-1.33.26s-.75.42-1.04.75-.51.73-.67 1.2q-.24.705-.24 1.62c0 .61.09 1.15.26 1.63.17.47.41.88.7 1.2s.64.57 1.04.75.83.26 1.29.26c.27 0 .52-.02.75-.04.22-.03.43-.08.62-.14.19-.07.36-.15.53-.25s.33-.23.5-.38c.05-.04.1-.08.16-.11.05-.03.11-.04.17-.04zm2.01-4.07c.88-.81 1.95-1.22 3.19-1.22.45 0 .85.07 1.21.22.35.15.65.35.9.62s.43.58.56.94.19.76.19 1.2V17h-.84c-.17 0-.31-.03-.4-.08-.1-.05-.17-.16-.23-.32l-.17-.55c-.2.17-.38.33-.57.46a3.3 3.3 0 0 1-1.22.54c-.23.05-.48.07-.75.07-.33 0-.62-.04-.9-.13s-.51-.22-.71-.39-.35-.39-.46-.65-.17-.56-.17-.91a1.72 1.72 0 0 1 .42-1.13c.15-.17.34-.34.57-.5.24-.15.52-.29.87-.4.34-.12.74-.21 1.2-.28s.97-.12 1.56-.13v-.45c0-.51-.11-.9-.33-1.14-.22-.25-.54-.37-.95-.37-.3 0-.55.04-.75.11s-.37.15-.52.24-.29.17-.41.24a.8.8 0 0 1-.41.11c-.13 0-.24-.03-.33-.1a1 1 0 0 1-.22-.24l-.33-.59zm4.24 3.34c-.54.03-.99.07-1.35.14s-.66.15-.88.26-.38.23-.47.37c-.1.14-.14.29-.14.46 0 .33.1.56.29.7q.285.21.75.21.57 0 .99-.21t.81-.63zm5.3-3.08c.24-.46.53-.82.86-1.08q.495-.39 1.17-.39c.35 0 .64.08.86.23l-.12 1.39c-.03.09-.06.15-.11.19s-.11.06-.19.06c-.07 0-.19-.01-.33-.04-.15-.02-.29-.04-.43-.04-.21 0-.39.03-.55.09s-.3.15-.43.26-.24.25-.34.41-.19.34-.27.55v4.74h-1.85v-7.7h1.09c.19 0 .32.03.4.1q.105.105.15.36l.11.87zm8.52.17c-.05.08-.1.14-.16.17-.05.03-.12.05-.21.05s-.19-.03-.29-.08-.22-.11-.36-.17c-.13-.06-.29-.12-.46-.17a2.2 2.2 0 0 0-.61-.08c-.37 0-.65.08-.86.23-.21.16-.31.36-.31.61 0 .17.05.3.16.42.11.11.25.21.43.3.18.08.38.16.6.23s.45.14.69.22q.345.12.69.27t.6.39c.18.16.32.35.43.57s.16.49.16.79c0 .37-.07.71-.2 1.02s-.33.58-.59.81-.58.4-.96.53-.82.19-1.32.19a4.4 4.4 0 0 1-1.51-.27c-.23-.08-.45-.18-.65-.3s-.37-.24-.52-.38l.43-.71a.5.5 0 0 1 .2-.19.62.62 0 0 1 .62.03q.15.105.36.21c.14.08.29.15.48.21.18.07.41.1.69.1.22 0 .41-.03.57-.08q.24-.075.39-.21c.1-.08.18-.18.22-.3s.07-.23.07-.35c0-.18-.05-.33-.16-.44s-.25-.21-.43-.3-.38-.16-.61-.23-.46-.14-.7-.22-.47-.17-.7-.28-.43-.24-.61-.41-.32-.37-.43-.61-.16-.53-.16-.87c0-.31.06-.61.19-.9s.31-.53.55-.75c.24-.21.54-.38.91-.51.36-.13.78-.19 1.26-.19.53 0 1.01.09 1.45.26.44.18.8.41 1.09.69l-.42.67z"/></g><defs><clipPath id="a"><path fill="#fff" d="M0 0h138v24H0z"/></clipPath></defs></svg>